<?xml version="1.0" encoding="UTF-8" standalone="no"?>

<svg version="1.1" id="svg1" width="512" height="512" viewBox="0 0 512 512">
    <path
        style="fill:#b2b5b3"
        d="M 238,477.34425 C 185.23317,472.28357 138.73312,451.03837 101.63622,415.04161 63.618953,378.15179 40.261716,329.45203 35.018568,276.14405 30.007901,225.19974 44.90059,170.19093 75.259252,127.50788 86.718796,111.39623 108.02304,89.540373 123,78.531024 174.75336,40.487875 235.07364,26.503785 297.5,38.076579 341.05235,46.150451 380.30825,67.07211 412.56841,99.402953 435.74324,122.62856 451.583,146.64634 462.75452,175.5 c 22.41454,57.89203 19.60975,122.54791 -7.73208,178.23952 -18.02284,36.7101 -44.7263,66.57 -80.06668,89.53085 -15.12101,9.82421 -44.01406,23.14524 -45.87276,21.14946 -1.37872,-1.48042 -8.08951,-26.817 -7.3009,-27.56455 0.39485,-0.37429 4.3179,-2.06146 8.7179,-3.74928 32.49462,-12.46479 66.59951,-40.91077 87.04991,-72.606 35.71076,-55.34662 40.2611,-127.08259 11.87944,-187.27897 C 405.64877,122.78335 358.49122,84.028286 303.71594,69.9071 294.69671,67.581925 271.94287,63.970703 270.75,64.675134 270.3375,64.918729 270,79.103546 270,96.196949 v 31.078911 l -7.25,-0.64662 c -8.20223,-0.73154 -25.75959,0.70345 -35.0427,2.8641 -23.11425,5.37987 -44.98116,17.29422 -61.558,33.54034 -23.20407,22.74113 -36.28998,50.20768 -39.01188,81.88362 -3.34497,38.92682 10.07376,75.20109 38.20303,103.27256 24.1777,24.12804 55.91759,37.10952 90.65955,37.0794 35.5518,-0.0308 66.26217,-12.7622 91.38462,-37.88464 18.86534,-18.86535 31.63058,-42.89445 36.17807,-68.1011 2.08673,-11.5667 2.07946,-33.99919 -0.0148,-45.78352 -5.97933,-33.64473 -26.25557,-65.0679 -54.44372,-84.37433 l -9.16177,-6.27502 4.20288,-7.67533 c 2.31158,-4.22142 5.36205,-9.80634 6.77882,-12.41091 1.41677,-2.60458 2.98641,-4.74208 3.48809,-4.75 3.61631,-0.0571 22.62179,14.14073 33.52725,25.0462 C 398.65296,173.77417 415,213.00496 415,256 415,336.71357 356.1822,403.16983 274.75,414.46376 L 270,415.12255 V 446.56127 478 l -14.25,-0.16004 c -7.8375,-0.088 -15.825,-0.31109 -17.75,-0.49571 z m 4,-46.32381 v -15.86153 l -2.75,-0.54158 c -1.5125,-0.29787 -5,-0.82768 -7.75,-1.17735 -12.15701,-1.54582 -32.95578,-8.18132 -46,-14.67553 C 153.24101,382.70394 126.94834,355.78452 111.93787,323.44879 104.71352,307.88601 100.87399,294.59789 97.433199,273.25 L 96.909374,270 h -15.89567 c -8.742619,0 -16.105383,0.33932 -16.361699,0.75405 -0.658479,1.06544 2.757316,23.45934 4.766019,31.24595 7.043303,27.30292 18.906386,51.84061 35.032206,72.46089 12.06983,15.43385 33.44564,34.54418 50.59288,45.23087 14.71478,9.17071 34.92887,17.55434 53.95689,22.37818 9.28775,2.35455 31.04956,5.87831 32.25,5.22205 0.4125,-0.22552 0.75,-7.54771 0.75,-16.27155 z M 97.442128,238.75 c 0.293014,-1.7875 1.022585,-6.175 1.621268,-9.75 3.990144,-23.82692 14.528854,-47.97289 29.933034,-68.58169 25.27242,-33.81124 62.28382,-55.67297 105.75357,-62.466045 l 7.25,-1.132968 0,-15.850631 c 0,-8.717848 -0.3375,-16.049937 -0.75,-16.293532 -0.4125,-0.243595 -6.15,0.357375 -12.75,1.33549 -40.77792,6.043255 -75.899,23.224612 -105.44604,51.584566 -26.861398,25.78222 -44.307753,55.86234 -53.51176,92.26226 -2.481013,9.81189 -5.591183,30.76023 -4.699338,31.65208 C 65.112621,241.77929 72.437942,242 81.121354,242 h 15.78802 z"
        id="path1" />
</svg>
